<?xml version="1.0" encoding="UTF-8" standalone="no"?>
<!DOCTYPE svg PUBLIC "-//W3C//DTD SVG 1.1//EN" "http://www.w3.org/Graphics/SVG/1.1/DTD/svg11.dtd">
<svg width="100%" height="100%" viewBox="0 0 703 548" version="1.1" xmlns="http://www.w3.org/2000/svg" xmlns:xlink="http://www.w3.org/1999/xlink" xml:space="preserve" xmlns:serif="http://www.serif.com/" style="fill-rule:evenodd;clip-rule:evenodd;stroke-linejoin:round;stroke-miterlimit:2;">
    <g transform="matrix(1,0,0,1,-327.261,-633.808)">
        <g transform="matrix(4.16667,0,0,4.16667,-1173.66,157.81)">
            <path d="M427.945,172.147L428.651,172.656L428.648,167.618L436.394,170.152L360.231,114.24L360.221,115.104L432.391,168.099L427.945,166.648L427.945,172.147Z" style="fill-rule:nonzero;"/>
        </g>
        <g transform="matrix(4.16667,0,0,4.16667,-1173.66,336.218)">
            <path d="M437.681,134.221L438.383,134.656L438.383,127.229L446.743,133.302L446.743,132.432L426.773,117.931L425.585,117.931L437.681,126.719L437.681,134.221Z" style="fill-rule:nonzero;"/>
        </g>
        <g transform="matrix(4.16667,0,0,4.16667,-1173.66,502.806)">
            <path d="M461.442,113.43L462.67,113.43L437.681,95.585L437.681,96.476L453.005,107.411L453.011,116.459L453.714,117.021L453.707,107.912L461.442,113.43Z" style="fill-rule:nonzero;"/>
        </g>
        <g transform="matrix(4.16667,0,0,4.16667,-1173.66,423.022)">
            <path d="M454.369,123.456L455.518,123.456L445.191,115.406L450.975,116.482L439.19,108.298L439.19,109.153L447.886,115.193L442.486,114.188L454.369,123.456Z" style="fill-rule:nonzero;"/>
        </g>
        <g transform="matrix(4.16667,0,0,4.16667,-1173.66,489.822)">
            <path d="M449.677,109.374L437.759,101.05L437.759,101.932L446.604,108.088L441.095,107.063L451.518,114.672L451.518,113.806L444.006,108.319L449.677,109.374Z" style="fill-rule:nonzero;"/>
        </g>
        <g transform="matrix(4.16667,0,0,4.16667,-1173.66,376.422)">
            <path d="M461.82,134.041L450.008,125.005L457.321,118.713L457.335,117.778L449.782,124.229L449.782,108.617L449.079,108.042L449.079,125.179L461.77,134.896L461.82,134.041Z" style="fill-rule:nonzero;"/>
        </g>
        <g transform="matrix(4.16667,0,0,4.16667,-1173.66,436.651)">
            <path d="M441.382,118.879L427.997,109.604L427.997,116.499L428.699,117.035L428.699,110.946L429.883,111.768L429.883,117.779L430.585,118.401L430.585,112.255L440.133,118.879L441.382,118.879Z" style="fill-rule:nonzero;"/>
        </g>
        <g transform="matrix(4.16667,0,0,4.16667,-1173.66,969.425)">
            <path d="M455.371,-1.385L454.818,-1.772L454.818,6.246L455.517,6.851L455.52,-0.423L528.822,50.864L528.83,50.008L455.371,-1.385Z" style="fill-rule:nonzero;"/>
        </g>
    </g>
</svg>
